<?xml version="1.0" standalone="no"?>
<!DOCTYPE svg PUBLIC "-//W3C//DTD SVG 20010904//EN"
 "http://www.w3.org/TR/2001/REC-SVG-20010904/DTD/svg10.dtd">
<svg version="1.0" xmlns="http://www.w3.org/2000/svg"
 width="150.000000pt" height="150.000000pt" viewBox="0 0 150.000000 150.000000"
 preserveAspectRatio="xMidYMid meet">
<metadata>
Created by potrace 1.16, written by Peter Selinger 2001-2019
</metadata>
<g transform="translate(0.000000,150.000000) scale(0.100000,-0.100000)"
fill="#000000" stroke="none">
<path d="M1305 1260 c48 -49 48 -50 30 -70 -11 -12 -27 -19 -36 -17 -12 3 -34
-15 -69 -59 l-51 -63 29 -43 c33 -49 62 -103 62 -116 0 -10 -44 -32 -65 -32
-7 0 -17 9 -20 21 -4 11 -11 19 -16 17 -17 -6 -209 -180 -209 -189 0 -6 69
-85 153 -177 l154 -167 17 -88 c10 -49 15 -91 13 -93 -2 -3 -46 2 -97 11 -77
12 -99 20 -124 43 -144 133 -316 282 -326 282 -10 0 -182 -149 -326 -282 -25
-23 -47 -31 -127 -45 -54 -8 -99 -14 -101 -12 -2 2 4 42 14 89 14 61 15 80 6
67 -8 -9 -23 -64 -36 -122 -38 -182 -10 -210 182 -179 57 9 112 21 123 27 11
5 79 62 150 125 72 64 137 122 146 129 15 13 33 -1 163 -116 80 -72 154 -134
163 -140 32 -16 236 -42 268 -33 33 9 55 42 55 82 0 41 -40 213 -55 235 -7 11
-65 77 -129 147 -64 70 -116 130 -116 132 0 3 17 21 38 41 29 27 46 35 77 35
22 1 60 9 85 18 77 30 89 87 40 191 -34 72 -32 79 31 112 51 26 69 54 69 112
0 43 -4 53 -47 98 -55 59 -89 79 -135 79 l-32 0 49 -50z"/>
<path d="M607 1203 c8 -22 11 -39 5 -41 -5 -1 -17 -9 -27 -16 -17 -12 -12 -21
70 -110 49 -53 92 -96 96 -96 4 0 14 11 23 25 16 25 16 27 -8 56 -18 21 -26
42 -26 69 0 21 -9 59 -20 84 -20 49 -47 66 -100 66 l-29 0 16 -37z"/>
<path d="M130 1181 c-30 -57 7 -138 76 -167 18 -8 35 -23 39 -34 6 -18 10 -15
41 26 l35 45 -52 65 c-39 47 -55 61 -65 53 -8 -7 -14 -7 -19 0 -3 6 -15 15
-25 21 -15 8 -21 6 -30 -9z"/>
<path d="M315 881 c-8 -25 -38 -27 -77 -7 -27 14 -28 14 -34 -12 -3 -15 -7
-32 -9 -39 -2 -6 0 -27 6 -46 8 -29 18 -38 59 -56 27 -11 66 -21 87 -21 28 0
48 -9 78 -34 l39 -33 38 30 c21 17 38 36 38 42 0 12 -190 186 -209 193 -5 2
-12 -6 -16 -17z"/>
</g>
</svg>
