<?xml version="1.0" standalone="no"?>
<!DOCTYPE svg PUBLIC "-//W3C//DTD SVG 20010904//EN"
 "http://www.w3.org/TR/2001/REC-SVG-20010904/DTD/svg10.dtd">
<svg version="1.0" xmlns="http://www.w3.org/2000/svg"
 width="150.000000pt" height="150.000000pt" viewBox="0 0 150.000000 150.000000"
 preserveAspectRatio="xMidYMid meet">
<metadata>
Created by potrace 1.16, written by Peter Selinger 2001-2019
</metadata>
<g transform="translate(0.000000,150.000000) scale(0.100000,-0.100000)"
fill="#000000" stroke="none">
<path d="M1025 1280 c63 -9 105 -30 161 -82 154 -142 163 -369 23 -584 -82
-125 -242 -282 -397 -387 -50 -34 -55 -36 -81 -23 -87 45 -301 237 -386 347
-56 72 -109 170 -129 238 -18 61 -21 179 -6 230 18 63 2 43 -21 -26 -29 -86
-31 -219 -5 -307 51 -172 170 -335 361 -494 143 -120 198 -152 260 -152 48 0
60 5 140 63 108 76 271 230 337 317 194 256 209 546 37 734 -76 84 -205 139
-313 135 -21 -1 -15 -4 19 -9z"/>
</g>
</svg>
