<?xml version="1.0" standalone="no"?>
<!DOCTYPE svg PUBLIC "-//W3C//DTD SVG 20010904//EN"
 "http://www.w3.org/TR/2001/REC-SVG-20010904/DTD/svg10.dtd">
<svg version="1.0" xmlns="http://www.w3.org/2000/svg"
 width="150.000000pt" height="150.000000pt" viewBox="0 0 150.000000 150.000000"
 preserveAspectRatio="xMidYMid meet">
<metadata>
Created by potrace 1.16, written by Peter Selinger 2001-2019
</metadata>
<g transform="translate(0.000000,150.000000) scale(0.100000,-0.100000)"
fill="#000000" stroke="none">
<path d="M781 1263 l306 -3 17 -45 c22 -55 74 -102 132 -117 28 -8 44 -18 44
-28 -1 -26 -106 -629 -111 -633 -2 -2 -95 -55 -206 -116 l-203 -113 -208 116
-209 116 -12 72 c-72 442 -95 560 -108 542 -21 -29 -16 -82 39 -413 42 -257
56 -318 72 -337 12 -13 112 -73 223 -134 255 -141 243 -140 426 -39 252 138
295 163 306 181 16 26 123 677 116 709 -8 33 -29 53 -76 68 -43 14 -90 61
-116 116 -28 62 -41 64 -413 62 l-325 -2 306 -2z"/>
</g>
</svg>
